#!OML:ASF \\sashay\E\Suitcase\Project 1\Capture day 1\Session 1\Male1.ASF
:FULLY-SPECIFIED
:DEGREES
43
root 1.44857 17.2838 -33.8355 3.40372 5.58359 1.22452
lowerback 2.92709 -1.39537 -3.31162
upperback -0.258589 -1.98779 -0.572975
thorax -1.81417 -0.961907 1.35369
lowerneck -10.4499 -11.4163 -10.0024
upperneck 14.9896 -14.7541 5.09428
head 7.44184 -7.24546 1.70862
rclavicle 9.49197e-015 -4.57205e-015
rhumerus -38.057 -24.2131 -64.16
rradius 15.8592
rwrist 1.41581
rhand -2.08892 14.9787
rfingers 7.12502
rthumb 23.5881 -13.5946
lclavicle 9.49197e-015 -4.57205e-015
lhumerus -40.4704 9.72286 65.7689
lradius 30.2952
lwrist -6.59971
lhand -1.34569 39.3208
lfingers 7.12502
lthumb 24.3008 67.8005
rfemur -12.6713 -5.68552 20.5639
rtibia 35.8698
rfoot -25.678 -9.23829
rtoes 12.2724
lfemur -13.0275 -5.7854 -23.9997
ltibia 30.9293
lfoot -22.689 -2.43535
ltoes 9.60574
44
root 1.43938 17.2826 -33.8309 3.34196 5.39788 1.05549
lowerback 2.97431 -1.41298 -3.20605
upperback -0.258854 -2.00849 -0.519232
thorax -1.84157 -0.972622 1.35207
lowerneck -10.7671 -11.4176 -10.0607
upperneck 15.2053 -14.7464 5.19902
head 7.57958 -7.22743 1.72721
rclavicle 3.11595e-014 5.96354e-016
rhumerus -38.2184 -24.9942 -63.6148
rradius 15.4052
rwrist 2.94437
rhand -2.67028 14.8219
rfingers 7.12502
rthumb 23.0304 -13.8221
lclavicle 3.11595e-014 5.96354e-016
lhumerus -40.5752 9.92382 65.7942
lradius 30.4016
lwrist -6.79345
lhand -1.34353 39.5413
lfingers 7.12502
lthumb 24.3029 68.0208
rfemur -12.3865 -5.41097 20.7996
rtibia 35.28
rfoot -25.1751 -9.39667
rtoes 10.5827
lfemur -13.1639 -5.46838 -23.8779
ltibia 30.9735
lfoot -22.621 -1.55807
ltoes 4.92397
45
root 1.43935 17.2893 -33.8203 3.364 5.31281 0.702127
lowerback 2.79215 -1.44343 -2.74219
upperback -0.222593 -2.02466 -0.474411
thorax -1.71544 -0.987304 1.13357
lowerneck -10.668 -11.4043 -9.87767
upperneck 14.638 -14.7429 5.23159
head 7.36393 -7.21883 1.73194
rclavicle 7.30534e-015 9.93923e-015
rhumerus -38.4154 -25.6464 -63.1576
rradius 14.963
rwrist 3.80788
rhand -3.22279 15.3241
rfingers 7.12502
rthumb 22.5001 -13.385
lclavicle 7.30534e-015 9.93923e-015
lhumerus -40.5736 9.78152 66.005
lradius 30.599
lwrist -6.74928
lhand -1.42082 39.2528
lfingers 7.12502
lthumb 24.2288 67.7421
rfemur -12.0845 -5.20284 21.1489
rtibia 34.6594
rfoot -24.9287 -8.88214
rtoes 12.2686
lfemur -13.2095 -5.67761 -23.4714
ltibia 31.0611
lfoot -22.6002 -1.441
ltoes 5.99482
46
root 1.43649 17.3025 -33.8113 3.60032 4.95863 0.414314
lowerback 2.45971 -1.41727 -2.45202
upperback -0.287875 -1.97003 -0.409512
thorax -1.60543 -0.963422 1.02736
lowerneck -10.5739 -11.2759 -10.0779
upperneck 14.3384 -14.6117 5.7145
head 7.29323 -7.1316 1.9408
rclavicle -1.05107e-014 -1.98785e-015
rhumerus -38.5711 -26.4972 -62.5219
rradius 14.4321
rwrist 4.99744
rhand -3.65132 15.8915
rfingers 7.12502
rthumb 22.0888 -12.8669
lclavicle -1.05107e-014 -1.98785e-015
lhumerus -40.5353 10.2605 65.9617
lradius 30.4264
lwrist -7.00622
lhand -1.57997 39.4249
lfingers 7.12502
lthumb 24.0762 67.9345
rfemur -12.1912 -4.88285 21.4514
rtibia 34.2779
rfoot -24.7448 -8.69679
rtoes 12.6624
lfemur -13.4492 -5.80649 -23.1494
ltibia 31.065
lfoot -22.3576 -1.1182
ltoes 6.74391
47
root 1.42986 17.3039 -33.8039 3.31762 4.77314 -0.155809
lowerback 2.65375 -1.4245 -1.92728
upperback -0.200178 -1.96462 -0.244255
thorax -1.636 -0.965018 0.907253
lowerneck -10.5501 -11.276 -10.1699
upperneck 13.9548 -14.6382 6.06616
head 7.2009 -7.12374 2.07069
rclavicle -6.55989e-015 -1.55052e-014
rhumerus -38.7476 -26.919 -62.1482
rradius 14.2857
rwrist 5.80729
rhand -3.98911 15.2894
rfingers 7.12502
rthumb 21.7644 -13.507
lclavicle -6.55989e-015 -1.55052e-014
lhumerus -40.7891 10.1398 66.2102
lradius 30.9424
lwrist -6.68748
lhand -1.9832 39.2745
lfingers 7.12502
lthumb 23.6895 67.8347
rfemur -11.687 -4.40019 22.0865
rtibia 33.7917
rfoot -24.4821 -8.81739
rtoes 11.5914
lfemur -13.2064 -6.18617 -22.5477
ltibia 31.2095
lfoot -22.2033 -0.568784
ltoes 5.99364
48
root 1.42756 17.3039 -33.801 3.41739 4.77666 -0.0674955
lowerback 2.6453 -1.4779 -1.95696
upperback -0.291415 -2.03812 -0.258221
thorax -1.72222 -1.00005 0.913706
lowerneck -10.3001 -11.2988 -10.2732
upperneck 13.4143 -14.6883 6.32276
head 7.01503 -7.1427 2.18518
rclavicle 7.95139e-015 1.59028e-014
rhumerus -39.2178 -27.875 -61.1941
rradius 13.9207
rwrist 7.44154
rhand -4.6781 14.8596
rfingers 7.12502
rthumb 21.1027 -14.012
lclavicle 7.95139e-015 1.59028e-014
lhumerus -40.9961 9.93031 66.5149
lradius 31.1555
lwrist -6.28852
lhand -2.13196 39.2558
lfingers 7.12502
lthumb 23.5468 67.8344
rfemur -11.5743 -4.63312 21.9783
rtibia 33.386
rfoot -23.9948 -8.70452
rtoes 10.326
lfemur -13.2956 -6.40302 -22.6564
ltibia 31.3347
lfoot -22.1399 -0.316668
ltoes 5.67627
49
root 1.41748 17.3166 -33.7959 3.55198 4.55413 -0.579598
lowerback 2.48952 -1.40998 -1.6055
upperback -0.366316 -1.9309 -0.0697526
thorax -1.71981 -0.948729 0.902973
lowerneck -10.4368 -11.3024 -10.0702
upperneck 13.3909 -14.6865 6.17394
head 7.00302 -7.14011 2.10339
rclavicle 1.41883e-014 -7.95139e-015
rhumerus -39.403 -27.9544 -61.0245
rradius 13.8464
rwrist 7.56157
rhand -5.04862 15.0464
rfingers 7.12502
rthumb 20.7467 -13.8646
lclavicle 1.41883e-014 -7.95139e-015
lhumerus -40.9594 10.2674 66.6533
lradius 31.0853
lwrist -6.57699
lhand -2.39341 39.3307
lfingers 7.12502
lthumb 23.296 67.9413
rfemur -11.517 -4.33267 22.6125
rtibia 32.9096
rfoot -23.794 -8.79158
rtoes 11.6402
lfemur -13.5892 -6.55395 -22.0559
ltibia 31.4887
lfoot -21.9249 0.0522634
ltoes 6.5901
50
root 1.41149 17.3277 -33.7854 3.49634 4.28763 -0.60366
lowerback 2.50354 -1.37822 -1.70591
upperback -0.407727 -1.89087 0.0198899
thorax -1.76502 -0.926665 1.05053
lowerneck -10.1616 -11.2431 -10.1488
upperneck 13.1473 -14.6102 6.20744
head 6.87995 -7.11344 2.15545
rclavicle 1.38404e-014 2.5842e-015
rhumerus -39.7793 -28.1109 -60.5677
rradius 13.8434
rwrist 7.9801
rhand -5.66942 14.9246
rfingers 7.12502
rthumb 20.1501 -14.0504
lclavicle 1.38404e-014 2.5842e-015
lhumerus -41.0922 10.5298 66.8904
lradius 31.2243
lwrist -6.56842
lhand -2.25418 39.4439
lfingers 7.12502
lthumb 23.4296 68.0375
rfemur -11.1785 -4.0842 22.6417
rtibia 32.4905
rfoot -23.7486 -8.69099
rtoes 11.9836
lfemur -13.4683 -6.44535 -22.0293
ltibia 31.5363
lfoot -22.0136 0.0226136
ltoes 6.98285
51
root 1.40713 17.3366 -33.7814 3.63166 3.96429 -1.07527
lowerback 2.29146 -1.28794 -1.33439
upperback -0.409879 -1.75288 0.18977
thorax -1.65806 -0.861647 1.00599
lowerneck -10.2496 -11.2751 -9.95436
upperneck 12.9941 -14.663 6.18023
head 6.83256 -7.13036 2.1117
rclavicle -2.04624e-014 -1.98785e-016
rhumerus -40.132 -29.4964 -59.3699
rradius 13.3597
rwrist 9.55872
rhand -6.08378 14.2894
rfingers 7.12502
rthumb 19.7518 -14.727
lclavicle -2.04624e-014 -1.98785e-016
lhumerus -41.1321 10.2938 67.4033
lradius 31.6405
lwrist -6.16974
lhand -2.56964 40.0877
lfingers 7.12502
lthumb 23.1269 68.7196
rfemur -11.1609 -3.99978 23.1779
rtibia 32.0122
rfoot -23.4538 -8.67388
rtoes 11.1508
lfemur -13.6186 -7.0751 -21.5248
ltibia 31.5913
lfoot -21.7011 0.558702
ltoes 8.21773
52
root 1.40031 17.3536 -33.7702 3.81733 3.86811 -1.17912
lowerback 2.0527 -1.36972 -1.24246
upperback -0.461449 -1.85555 0.24752
thorax -1.57525 -0.913987 1.01157
lowerneck -10.7073 -11.1685 -9.69091
upperneck 13.4302 -14.4695 5.74591
head 6.98171 -7.044 1.92826
rclavicle -3.10601e-015 1.55052e-014
rhumerus -40.6046 -30.4959 -58.2962
rradius 12.9682
rwrist 10.8227
rhand -5.78902 15.4349
rfingers 7.12502
rthumb 20.0352 -13.5521
lclavicle -3.10601e-015 1.55052e-014
lhumerus -41.211 10.3814 67.6144
lradius 31.8748
lwrist -5.81528
lhand -2.29074 40.9747
lfingers 7.12502
lthumb 23.3945 69.5728
rfemur -11.1474 -4.2556 23.3026
rtibia 31.6035
rfoot -23.3472 -8.26687
rtoes 11.072
lfemur -13.725 -7.15056 -21.3541
ltibia 31.5004
lfoot -21.7488 0.531309
ltoes 8.85241
